<svg xmlns="http://www.w3.org/2000/svg" width="288" height="288" viewBox="0 0 288 288">
  <defs>
    <linearGradient id="g" x1="0" y1="0" x2="1" y2="1">
      <stop offset="0" stop-color="hsl(217, 70%, 58%)"/>
      <stop offset="1" stop-color="hsl(217, 70%, 40%)"/>
    </linearGradient>
    <filter id="sh" x="-20%" y="-20%" width="140%" height="140%">
      <feDropShadow dx="0" dy="2" stdDeviation="3" flood-color="#000" flood-opacity="0.28"/>
    </filter>
  </defs>
  <rect width="288" height="288" fill="url(#g)"/>
  <g filter="url(#sh)">
    <svg x="78" y="46" width="132" height="132" viewBox="0 0 24 24" fill="#fff"><path d="M6 2h7.2L20 8v12a2 2 0 01-2 2H6a2 2 0 01-2-2V4a2 2 0 012-2zm7 1.6V8h4.4L13 3.6zM7.5 12h9v1.7h-9zm0 3.6h9v1.7h-9zM7.5 8.4H12v1.7H7.5z"/></svg>
    <text x="144" y="236" text-anchor="middle" fill="#fff"
      font-family="Helvetica, Arial, sans-serif" font-size="30" font-weight="800"
      letter-spacing="1.5">NOTE</text>
  </g>
</svg>