<svg xmlns="http://www.w3.org/2000/svg" width="288" height="288" viewBox="0 0 288 288">
  <defs>
    <linearGradient id="g" x1="0" y1="0" x2="1" y2="1">
      <stop offset="0" stop-color="hsl(158, 70%, 58%)"/>
      <stop offset="1" stop-color="hsl(158, 70%, 40%)"/>
    </linearGradient>
    <filter id="sh" x="-20%" y="-20%" width="140%" height="140%">
      <feDropShadow dx="0" dy="2" stdDeviation="3" flood-color="#000" flood-opacity="0.28"/>
    </filter>
  </defs>
  <rect width="288" height="288" fill="url(#g)"/>
  <g filter="url(#sh)">
    <svg x="78" y="46" width="132" height="132" viewBox="0 0 24 24" fill="#fff"><path d="M7 2a1 1 0 011 1v1h8V3a1 1 0 112 0v1h1a2 2 0 012 2v13a2 2 0 01-2 2H5a2 2 0 01-2-2V6a2 2 0 012-2h1V3a1 1 0 011-1zM5 9v10h14V9H5z"/><path d="M10.7 16.6l-2.5-2.5 1.15-1.15 1.35 1.35 3.25-3.25 1.15 1.15-4.4 4.4z"/></svg>
    <text x="144" y="236" text-anchor="middle" fill="#fff"
      font-family="Helvetica, Arial, sans-serif" font-size="30" font-weight="800"
      letter-spacing="1.5">TODAY</text>
  </g>
</svg>